<svg xmlns="http://www.w3.org/2000/svg" viewBox="0 0 200 360" preserveAspectRatio="xMidYMax meet"><g class="char"><g transform="translate(0 -10) rotate(-14 100 290)"><g class="body"><ellipse cx="100" cy="288" rx="56" ry="9" fill="#000" opacity="0.28"/><path d="M76 160 L62 368 L138 368 L124 160 Z" fill="#0a090e" stroke="none"/><path d="M122 166 L126 368 L138 368 L124 166 Z" fill="#070609" opacity="0.28"/><defs><clipPath id="body-clip"><path d="M76 160 L62 368 L138 368 L124 160 Z"/></clipPath></defs><g clip-path="url(#body-clip)"><path d="M72 164 Q100 180, 128 164" stroke="#07070a" stroke-width="10" fill="none" stroke-linecap="butt" opacity="0.75"/></g><path d="M76 160 L62 368 L138 368 L124 160 Z" fill="none" stroke="#1a1a1a" stroke-width="3"/><ellipse cx="100" cy="110" rx="78" ry="72" fill="#0a090e" stroke="none"/><defs><clipPath id="head-clip"><ellipse cx="100" cy="110" rx="76.5" ry="70.5"/></clipPath></defs><g clip-path="url(#head-clip)"><path d="M22 110 A78 70 0 0 0 178 110" stroke="#050407" stroke-width="3.4" fill="none" stroke-linecap="round" opacity="0.7"/></g><defs><clipPath id="head-stroke-not-body"><path d="M0 0 L200 0 L200 360 L0 360 Z M76 160 L62 368 L138 368 L124 160 Z" clip-rule="evenodd"/></clipPath></defs><g clip-path="url(#head-stroke-not-body)"><ellipse cx="100" cy="110" rx="78" ry="72" fill="none" stroke="#1a1a1a" stroke-width="3.4"/></g><path d="M80 80 l8 14 l-4 14 l10 18 l-4 14" stroke="#e0d0c0" stroke-width="1.2" fill="none" opacity="0.55"/><path d="M97 180 q1 30 5 60 l-4 6 l-6 -8 q-1 -28 5 -56 Z" fill="#08010a" opacity="0.85"/></g><path d="M86 42 C82 30, 84 16, 78 8 C68 0, 66 16, 70 30 C72 38, 80 42, 86 42 Z" fill="#7a64b8" opacity="0.85"/><path d="M82 36 C80 22, 78 12, 72 16" stroke="#a890e0" stroke-width="3" fill="none" stroke-linecap="round" opacity="0.55"/><path d="M114 42 C118 30, 116 16, 122 8 C132 0, 134 16, 130 30 C128 38, 120 42, 114 42 Z" fill="#7a64b8" opacity="0.85"/><path d="M118 36 C120 22, 122 12, 128 16" stroke="#a890e0" stroke-width="3" fill="none" stroke-linecap="round" opacity="0.55"/><circle cx="100" cy="18" r="12" fill="#ff3838" opacity="0.18"/><circle cx="100" cy="18" r="6" fill="#ff3838" stroke="#0a0a18" stroke-width="1.6"/><circle cx="98.5" cy="16" r="1.8" fill="#ffe0e0" opacity="0.9"/><path d="M56 68 q-4 -8 4 -14 q8 -4 0 -12" stroke="#4a3a78" stroke-width="2.4" fill="none" stroke-linecap="round" opacity="0.6"/><path d="M138 72 q6 -8 -2 -14 q-8 -4 2 -10" stroke="#4a3a78" stroke-width="2" fill="none" stroke-linecap="round" opacity="0.55"/><ellipse cx="63" cy="110" rx="30" ry="29" fill="#08020a" stroke="#000" stroke-width="2"/><circle cx="63" cy="112" r="9.5" fill="#ff1a1a" opacity="0.35"/><circle cx="63" cy="112" r="6" fill="#ff2828"/><circle cx="63" cy="112" r="2.6" fill="#ffe2a0"/><path d="M62 138 l-1 14 l3 0 z" fill="#0a0203" opacity="0.85"/><ellipse cx="129" cy="110" rx="30" ry="29" fill="#08020a" stroke="#000" stroke-width="2"/><circle cx="129" cy="112" r="9.5" fill="#ff1a1a" opacity="0.35"/><circle cx="129" cy="112" r="6" fill="#ff2828"/><circle cx="129" cy="112" r="2.6" fill="#ffe2a0"/><path d="M128 138 l-1 14 l3 0 z" fill="#0a0203" opacity="0.85"/><path d="M74 157 q26 22 52 0 q-26 -14 -52 0 Z" fill="#0a0000" stroke="#000" stroke-width="2.4" stroke-linejoin="round"/><path d="M74.0 157 L77.7 166 L81.4 157 Z" fill="#f0d8c0"/><path d="M77.7 171 L81.4 163 L85.1 171 Z" fill="#f0d8c0"/><path d="M81.4 157 L85.1 166 L88.9 157 Z" fill="#f0d8c0"/><path d="M85.1 171 L88.9 163 L92.6 171 Z" fill="#f0d8c0"/><path d="M88.9 157 L92.6 166 L96.3 157 Z" fill="#f0d8c0"/><path d="M92.6 171 L96.3 163 L100.0 171 Z" fill="#f0d8c0"/><path d="M96.3 157 L100.0 166 L103.7 157 Z" fill="#f0d8c0"/><path d="M100.0 171 L103.7 163 L107.4 171 Z" fill="#f0d8c0"/><path d="M103.7 157 L107.4 166 L111.1 157 Z" fill="#f0d8c0"/><path d="M107.4 171 L111.1 163 L114.9 171 Z" fill="#f0d8c0"/><path d="M111.1 157 L114.9 166 L118.6 157 Z" fill="#f0d8c0"/><path d="M114.9 171 L118.6 163 L122.3 171 Z" fill="#f0d8c0"/><path d="M118.6 157 L122.3 166 L126.0 157 Z" fill="#f0d8c0"/><path d="M78 169 q-2 14 4 18" stroke="#0a0203" stroke-width="2.2" fill="none" stroke-linecap="round"/><path d="M122 169 q2 14 -4 18" stroke="#0a0203" stroke-width="2.2" fill="none" stroke-linecap="round"/></g></g></svg>
