<svg xmlns="http://www.w3.org/2000/svg" viewBox="0 0 200 360" preserveAspectRatio="xMidYMax meet"><rect x="0" y="0" width="80" height="80" rx="14" fill="#070b12"/><g transform="translate(40 70) scale(0.38) translate(-100 -150)"><g class="body"><ellipse cx="100" cy="288" rx="56" ry="9" fill="#000" opacity="0.28"/><path d="M76 176 L62 368 L138 368 L124 176 Z" fill="#0f0d14" stroke="none"/><path d="M122 182 L126 368 L138 368 L124 182 Z" fill="#0a090e" opacity="0.28"/><defs><clipPath id="body-clip"><path d="M76 176 L62 368 L138 368 L124 176 Z"/></clipPath></defs><g clip-path="url(#body-clip)"><path d="M72 180 Q100 196, 128 180" stroke="#0b0a0f" stroke-width="10" fill="none" stroke-linecap="butt" opacity="0.75"/></g><path d="M76 176 L62 368 L138 368 L124 176 Z" fill="none" stroke="#1a1a1a" stroke-width="3"/><ellipse cx="100" cy="110" rx="78" ry="72" fill="#0f0d14" stroke="#1a1a1a" stroke-width="3.4"/><defs><clipPath id="head-clip"><ellipse cx="100" cy="110" rx="76.5" ry="70.5"/></clipPath></defs><g clip-path="url(#head-clip)"><path d="M22 110 A78 70 0 0 0 178 110" stroke="#08070b" stroke-width="3.4" fill="none" stroke-linecap="round" opacity="0.7"/></g></g><g opacity="0.85"><path d="M74 52 q-6 -22 14 -28 q-14 -16 8 -32 q10 -2 14 6" stroke="#8a78c8" stroke-width="4" fill="none" stroke-linecap="round"/><path d="M110 46 q14 -16 -2 -30 q22 -6 22 -22" stroke="#5a4a8a" stroke-width="3" fill="none" stroke-linecap="round" opacity="0.7"/><circle cx="74" cy="-10" r="6" fill="#8a78c8" opacity="0.55"/><circle cx="124" cy="2" r="5" fill="#5a4a8a" opacity="0.5"/></g><g transform="rotate(-12 67 74)"><path d="M53 74 Q67 62, 81 74" stroke="#1a1a1a" stroke-width="2.4" fill="none" stroke-linecap="round"/></g><g transform="rotate(12 133 74)"><path d="M119 74 Q133 62, 147 74" stroke="#1a1a1a" stroke-width="2.4" fill="none" stroke-linecap="round"/></g><ellipse cx="67" cy="110" rx="29" ry="29" fill="#3a0a0a" stroke="#1a1a1a" stroke-width="3"/><defs><clipPath id="eye-0"><ellipse cx="67" cy="110" rx="27.5" ry="27.5"/></clipPath></defs><g clip-path="url(#eye-0)"><circle cx="67" cy="110" r="20.299999999999997" fill="#ff2828"/><path d="M36 110.0 Q67 112.0, 98 110.0 L98 75 L36 75 Z" fill="#3a0a0a"/><path d="M38 110.0 Q67 112.0, 96 110.0" stroke="#1a1a1a" stroke-width="2.2" fill="none"/></g><ellipse cx="133" cy="110" rx="29" ry="29" fill="#3a0a0a" stroke="#1a1a1a" stroke-width="3"/><defs><clipPath id="eye-1"><ellipse cx="133" cy="110" rx="27.5" ry="27.5"/></clipPath></defs><g clip-path="url(#eye-1)"><circle cx="133" cy="110" r="20.299999999999997" fill="#ff2828"/><path d="M102 110.0 Q133 112.0, 164 110.0 L164 75 L102 75 Z" fill="#3a0a0a"/><path d="M104 110.0 Q133 112.0, 162 110.0" stroke="#1a1a1a" stroke-width="2.2" fill="none"/></g><line x1="85" y1="158" x2="115" y2="158" stroke="#1a1a1a" stroke-width="2.6" stroke-linecap="round"/></g></svg>
