<svg xmlns="http://www.w3.org/2000/svg" viewBox="0 0 200 360" preserveAspectRatio="xMidYMax meet"><g class="char"><g><g class="body"><ellipse cx="100" cy="288" rx="56" ry="9" fill="#000" opacity="0.28"/><path d="M76 160 L62 368 L138 368 L124 160 Z" fill="#58595b" stroke="none"/><path d="M122 166 L126 368 L138 368 L124 166 Z" fill="#3d3e3f" opacity="0.28"/><defs><clipPath id="body-clip"><path d="M76 160 L62 368 L138 368 L124 160 Z"/></clipPath></defs><g clip-path="url(#body-clip)"><path d="M72 164 Q100 180, 128 164" stroke="#444546" stroke-width="10" fill="none" stroke-linecap="butt" opacity="0.75"/></g><path d="M76 160 L62 368 L138 368 L124 160 Z" fill="none" stroke="#1a1a1a" stroke-width="3"/><ellipse cx="100" cy="110" rx="78" ry="72" fill="#58595b" stroke="none"/><defs><clipPath id="head-clip"><ellipse cx="100" cy="110" rx="76.5" ry="70.5"/></clipPath></defs><g clip-path="url(#head-clip)"><path d="M22 110 A78 70 0 0 0 178 110" stroke="#303032" stroke-width="3.4" fill="none" stroke-linecap="round" opacity="0.7"/></g><defs><clipPath id="head-stroke-not-body"><path d="M0 0 L200 0 L200 360 L0 360 Z M76 160 L62 368 L138 368 L124 160 Z" clip-rule="evenodd"/></clipPath></defs><g clip-path="url(#head-stroke-not-body)"><ellipse cx="100" cy="110" rx="78" ry="72" fill="none" stroke="#1a1a1a" stroke-width="3.4"/></g><path d="M80 80 l8 14 l-4 14 l10 18 l-4 14" stroke="#e0d0c0" stroke-width="1.2" fill="none" opacity="0.55"/><path d="M97 180 q1 30 5 60 l-4 6 l-6 -8 q-1 -28 5 -56 Z" fill="#08010a" opacity="0.85"/></g><line x1="100" y1="36" x2="100" y2="12" stroke="#3a414c" stroke-width="3.4" stroke-linecap="round"/><line x1="99.3" y1="34" x2="99.3" y2="14" stroke="#7a818d" stroke-width="0.9" opacity="0.7"/><ellipse cx="100" cy="44" rx="58" ry="10" fill="#e9c449" stroke="#1a1a1a" stroke-width="2.6"/><ellipse cx="100" cy="44" rx="50" ry="8.6" fill="none" stroke="#8a6a14" stroke-width="0.7" opacity="0.55"/><ellipse cx="100" cy="44" rx="42" ry="7.2" fill="none" stroke="#8a6a14" stroke-width="0.7" opacity="0.55"/><ellipse cx="100" cy="44" rx="34" ry="5.9" fill="none" stroke="#8a6a14" stroke-width="0.7" opacity="0.55"/><ellipse cx="100" cy="44" rx="24" ry="4.1" fill="none" stroke="#8a6a14" stroke-width="0.7" opacity="0.55"/><path d="M54 39 Q100 35, 146 39" stroke="#fff4a8" stroke-width="1.4" fill="none"/><rect x="95" y="37" width="10" height="5" rx="1" fill="#c0392b" stroke="#1a1a1a" stroke-width="1.2"/><ellipse cx="100" cy="30" rx="62" ry="9" fill="#e9c449" stroke="#1a1a1a" stroke-width="2.8"/><ellipse cx="100" cy="30" rx="54" ry="7.8" fill="none" stroke="#8a6a14" stroke-width="0.8" opacity="0.55"/><ellipse cx="100" cy="30" rx="46" ry="6.7" fill="none" stroke="#8a6a14" stroke-width="0.8" opacity="0.55"/><ellipse cx="100" cy="30" rx="38" ry="5.5" fill="none" stroke="#8a6a14" stroke-width="0.8" opacity="0.55"/><ellipse cx="100" cy="30" rx="28" ry="4.1" fill="none" stroke="#8a6a14" stroke-width="0.8" opacity="0.55"/><ellipse cx="100" cy="30" rx="18" ry="2.6" fill="none" stroke="#8a6a14" stroke-width="0.8" opacity="0.55"/><ellipse cx="100" cy="28" rx="10" ry="3.6" fill="#fff4a8" stroke="#1a1a1a" stroke-width="1.6"/><ellipse cx="97" cy="27" rx="3" ry="1.2" fill="#fff" opacity="0.85"/><path d="M50 25 Q100 21, 150 25" stroke="#fff4a8" stroke-width="1.6" fill="none"/><rect x="97" y="10" width="6" height="6" rx="1" fill="#3a414c" stroke="#1a1a1a" stroke-width="1.2"/><ellipse cx="67" cy="110" rx="30" ry="29" fill="#08020a" stroke="#000" stroke-width="2"/><circle cx="67" cy="112" r="9.5" fill="#ff1a1a" opacity="0.35"/><circle cx="67" cy="112" r="6" fill="#ff2828"/><circle cx="67" cy="112" r="2.6" fill="#ffe2a0"/><path d="M66 138 l-1 14 l3 0 z" fill="#0a0203" opacity="0.85"/><ellipse cx="133" cy="110" rx="30" ry="29" fill="#08020a" stroke="#000" stroke-width="2"/><circle cx="133" cy="112" r="9.5" fill="#ff1a1a" opacity="0.35"/><circle cx="133" cy="112" r="6" fill="#ff2828"/><circle cx="133" cy="112" r="2.6" fill="#ffe2a0"/><path d="M132 138 l-1 14 l3 0 z" fill="#0a0203" opacity="0.85"/><path d="M74 156 q26 22 52 0 q-26 -14 -52 0 Z" fill="#0a0000" stroke="#000" stroke-width="2.4" stroke-linejoin="round"/><path d="M74.0 156 L77.7 165 L81.4 156 Z" fill="#f0d8c0"/><path d="M77.7 170 L81.4 162 L85.1 170 Z" fill="#f0d8c0"/><path d="M81.4 156 L85.1 165 L88.9 156 Z" fill="#f0d8c0"/><path d="M85.1 170 L88.9 162 L92.6 170 Z" fill="#f0d8c0"/><path d="M88.9 156 L92.6 165 L96.3 156 Z" fill="#f0d8c0"/><path d="M92.6 170 L96.3 162 L100.0 170 Z" fill="#f0d8c0"/><path d="M96.3 156 L100.0 165 L103.7 156 Z" fill="#f0d8c0"/><path d="M100.0 170 L103.7 162 L107.4 170 Z" fill="#f0d8c0"/><path d="M103.7 156 L107.4 165 L111.1 156 Z" fill="#f0d8c0"/><path d="M107.4 170 L111.1 162 L114.9 170 Z" fill="#f0d8c0"/><path d="M111.1 156 L114.9 165 L118.6 156 Z" fill="#f0d8c0"/><path d="M114.9 170 L118.6 162 L122.3 170 Z" fill="#f0d8c0"/><path d="M118.6 156 L122.3 165 L126.0 156 Z" fill="#f0d8c0"/><path d="M78 168 q-2 14 4 18" stroke="#0a0203" stroke-width="2.2" fill="none" stroke-linecap="round"/><path d="M122 168 q2 14 -4 18" stroke="#0a0203" stroke-width="2.2" fill="none" stroke-linecap="round"/></g></g></svg>
