<svg xmlns="http://www.w3.org/2000/svg" viewBox="0 0 200 360" preserveAspectRatio="xMidYMax meet"><rect x="0" y="0" width="80" height="80" rx="14" fill="#070b12"/><g transform="translate(40 70) scale(0.38) translate(-100 -150)"><g class="body"><ellipse cx="100" cy="288" rx="56" ry="9" fill="#000" opacity="0.28"/><path d="M76 160 L62 368 L138 368 L124 160 Z" fill="#511d7a" stroke="none"/><path d="M122 166 L126 368 L138 368 L124 166 Z" fill="#381455" opacity="0.28"/><defs><clipPath id="body-clip"><path d="M76 160 L62 368 L138 368 L124 160 Z"/></clipPath></defs><g clip-path="url(#body-clip)"><path d="M72 164 Q100 180, 128 164" stroke="#3f165f" stroke-width="10" fill="none" stroke-linecap="butt" opacity="0.75"/></g><path d="M76 160 L62 368 L138 368 L124 160 Z" fill="none" stroke="#1a1a1a" stroke-width="3"/><ellipse cx="100" cy="110" rx="78" ry="72" fill="#511d7a" stroke="none"/><defs><clipPath id="head-clip"><ellipse cx="100" cy="110" rx="76.5" ry="70.5"/></clipPath></defs><g clip-path="url(#head-clip)"><path d="M22 110 A78 70 0 0 0 178 110" stroke="#2c0f43" stroke-width="3.4" fill="none" stroke-linecap="round" opacity="0.7"/></g><defs><clipPath id="head-stroke-not-body"><path d="M0 0 L200 0 L200 360 L0 360 Z M76 160 L62 368 L138 368 L124 160 Z" clip-rule="evenodd"/></clipPath></defs><g clip-path="url(#head-stroke-not-body)"><ellipse cx="100" cy="110" rx="78" ry="72" fill="none" stroke="#1a1a1a" stroke-width="3.4"/></g></g><path d="M86 52 L58 16 L142 16 L114 52 Z" fill="#e9c449" stroke="#8a6a14" stroke-width="2.6" stroke-linejoin="round"/><ellipse cx="100" cy="14" rx="44" ry="7" fill="#fff4a8" stroke="#8a6a14" stroke-width="2.4"/><ellipse cx="100" cy="16" rx="38" ry="5" fill="#3a2a08"/><path d="M64 10 q36 -4 72 0" stroke="#ffffff" stroke-width="1.4" fill="none" opacity="0.65"/><path d="M72 20 L88 48" stroke="#fff4a8" stroke-width="3" stroke-linecap="round" opacity="0.7"/><rect x="91" y="42" width="6" height="10" rx="1" fill="#e9c449" stroke="#8a6a14" stroke-width="1.6"/><rect x="91" y="42" width="6" height="3" fill="#fff4a8" opacity="0.7"/><rect x="103" y="42" width="6" height="10" rx="1" fill="#e9c449" stroke="#8a6a14" stroke-width="1.6"/><rect x="103" y="42" width="6" height="3" fill="#fff4a8" opacity="0.7"/><g transform="rotate(-12 67 74)"><path d="M53 74 Q67 62, 81 74" stroke="#1a1a1a" stroke-width="2.4" fill="none" stroke-linecap="round"/></g><g transform="rotate(12 133 74)"><path d="M119 74 Q133 62, 147 74" stroke="#1a1a1a" stroke-width="2.4" fill="none" stroke-linecap="round"/></g><ellipse cx="67" cy="110" rx="29" ry="29" fill="#e5e5e5" stroke="#1a1a1a" stroke-width="3"/><defs><clipPath id="eye-0"><ellipse cx="67" cy="110" rx="27.5" ry="27.5"/></clipPath></defs><g clip-path="url(#eye-0)"><circle cx="67" cy="110" r="20.299999999999997" fill="#000"/><path d="M36 110.0 Q67 112.0, 98 110.0 L98 75 L36 75 Z" fill="#511d7a"/><path d="M38 110.0 Q67 112.0, 96 110.0" stroke="#1a1a1a" stroke-width="2.2" fill="none"/></g><ellipse cx="133" cy="110" rx="29" ry="29" fill="#e5e5e5" stroke="#1a1a1a" stroke-width="3"/><defs><clipPath id="eye-1"><ellipse cx="133" cy="110" rx="27.5" ry="27.5"/></clipPath></defs><g clip-path="url(#eye-1)"><circle cx="133" cy="110" r="20.299999999999997" fill="#000"/><path d="M102 110.0 Q133 112.0, 164 110.0 L164 75 L102 75 Z" fill="#511d7a"/><path d="M104 110.0 Q133 112.0, 162 110.0" stroke="#1a1a1a" stroke-width="2.2" fill="none"/></g><line x1="85" y1="158" x2="115" y2="158" stroke="#1a1a1a" stroke-width="2.6" stroke-linecap="round"/></g></svg>
