<svg xmlns="http://www.w3.org/2000/svg" viewBox="0 0 200 360" preserveAspectRatio="xMidYMax meet"><g class="char"><g transform="translate(0 -10) rotate(14 100 290)"><g class="body"><ellipse cx="100" cy="288" rx="56" ry="9" fill="#000" opacity="0.28"/><path d="M76 160 L62 368 L138 368 L124 160 Z" fill="#272a32" stroke="none"/><path d="M122 166 L126 368 L138 368 L124 166 Z" fill="#1b1d23" opacity="0.28"/><defs><clipPath id="body-clip"><path d="M76 160 L62 368 L138 368 L124 160 Z"/></clipPath></defs><g clip-path="url(#body-clip)"><path d="M72 164 Q100 180, 128 164" stroke="#1e2027" stroke-width="10" fill="none" stroke-linecap="butt" opacity="0.75"/></g><path d="M76 160 L62 368 L138 368 L124 160 Z" fill="none" stroke="#1a1a1a" stroke-width="3"/><ellipse cx="100" cy="110" rx="78" ry="72" fill="#272a32" stroke="none"/><defs><clipPath id="head-clip"><ellipse cx="100" cy="110" rx="76.5" ry="70.5"/></clipPath></defs><g clip-path="url(#head-clip)"><path d="M22 110 A78 70 0 0 0 178 110" stroke="#15171b" stroke-width="3.4" fill="none" stroke-linecap="round" opacity="0.7"/></g><defs><clipPath id="head-stroke-not-body"><path d="M0 0 L200 0 L200 360 L0 360 Z M76 160 L62 368 L138 368 L124 160 Z" clip-rule="evenodd"/></clipPath></defs><g clip-path="url(#head-stroke-not-body)"><ellipse cx="100" cy="110" rx="78" ry="72" fill="none" stroke="#1a1a1a" stroke-width="3.4"/></g></g><path d="M56 34 L52 -2 L148 -2 L144 34 Z" fill="#cdc6b0" stroke="#3a3520" stroke-width="2.6" stroke-linejoin="round"/><line x1="56" y1="0" x2="144" y2="0" stroke="#ffffff" stroke-width="1.2" opacity="0.55"/><rect x="62" y="2" width="76" height="28" rx="4" fill="#0a2418" stroke="#0a3a2a" stroke-width="1.6"/><line x1="64" y1="5" x2="136" y2="5" stroke="#0c4a36" stroke-width="0.6" opacity="0.55"/><line x1="64" y1="8" x2="136" y2="8" stroke="#0c4a36" stroke-width="0.6" opacity="0.55"/><line x1="64" y1="11" x2="136" y2="11" stroke="#0c4a36" stroke-width="0.6" opacity="0.55"/><line x1="64" y1="14" x2="136" y2="14" stroke="#0c4a36" stroke-width="0.6" opacity="0.55"/><line x1="64" y1="17" x2="136" y2="17" stroke="#0c4a36" stroke-width="0.6" opacity="0.55"/><line x1="64" y1="20" x2="136" y2="20" stroke="#0c4a36" stroke-width="0.6" opacity="0.55"/><line x1="64" y1="23" x2="136" y2="23" stroke="#0c4a36" stroke-width="0.6" opacity="0.55"/><line x1="64" y1="26" x2="136" y2="26" stroke="#0c4a36" stroke-width="0.6" opacity="0.55"/><rect x="66" y="6" width="14" height="2.5" fill="#8fff8a"/><rect x="66" y="12" width="22" height="2.5" fill="#8fff8a"/><rect x="66" y="18" width="10" height="2.5" fill="#8fff8a"/><rect x="66" y="24" width="18" height="2.5" fill="#8fff8a"/><rect x="86" y="24" width="3" height="2.5" fill="#8fff8a" opacity="0.85"/><line x1="124" y1="32" x2="124" y2="24" stroke="#7a7560" stroke-width="1.2"/><line x1="128" y1="32" x2="128" y2="24" stroke="#7a7560" stroke-width="1.2"/><line x1="132" y1="32" x2="132" y2="24" stroke="#7a7560" stroke-width="1.2"/><circle cx="70" cy="31" r="2" fill="#5fff88"/><circle cx="70" cy="31" r="3" fill="#5fff88" opacity="0.25"/><g transform="rotate(-12 71 74)"><path d="M57 74 Q71 62, 85 74" stroke="#1a1a1a" stroke-width="2.4" fill="none" stroke-linecap="round"/></g><g transform="rotate(12 137 74)"><path d="M123 74 Q137 62, 151 74" stroke="#1a1a1a" stroke-width="2.4" fill="none" stroke-linecap="round"/></g><ellipse cx="71" cy="110" rx="29" ry="29" fill="#fff" stroke="#1a1a1a" stroke-width="3"/><defs><clipPath id="eye-0"><ellipse cx="71" cy="110" rx="27.5" ry="27.5"/></clipPath></defs><g clip-path="url(#eye-0)"><circle cx="71" cy="110" r="20.299999999999997" fill="#000"/><path d="M40 110.0 Q71 112.0, 102 110.0 L102 75 L40 75 Z" fill="#272a32"/><path d="M42 110.0 Q71 112.0, 100 110.0" stroke="#1a1a1a" stroke-width="2.2" fill="none"/></g><ellipse cx="137" cy="110" rx="29" ry="29" fill="#fff" stroke="#1a1a1a" stroke-width="3"/><defs><clipPath id="eye-1"><ellipse cx="137" cy="110" rx="27.5" ry="27.5"/></clipPath></defs><g clip-path="url(#eye-1)"><circle cx="137" cy="110" r="20.299999999999997" fill="#000"/><path d="M106 110.0 Q137 112.0, 168 110.0 L168 75 L106 75 Z" fill="#272a32"/><path d="M108 110.0 Q137 112.0, 166 110.0" stroke="#1a1a1a" stroke-width="2.2" fill="none"/></g><line x1="85" y1="159" x2="115" y2="159" stroke="#1a1a1a" stroke-width="2.6" stroke-linecap="round"/></g></g></svg>
