<svg xmlns="http://www.w3.org/2000/svg" viewBox="0 0 200 360" preserveAspectRatio="xMidYMax meet"><g class="char"><g><g class="body"><ellipse cx="100" cy="288" rx="56" ry="9" fill="#000" opacity="0.28"/><path d="M76 160 L62 368 L138 368 L124 160 Z" fill="#3a7a26" stroke="none"/><path d="M122 166 L126 368 L138 368 L124 166 Z" fill="#28551a" opacity="0.28"/><defs><clipPath id="body-clip"><path d="M76 160 L62 368 L138 368 L124 160 Z"/></clipPath></defs><g clip-path="url(#body-clip)"><path d="M72 164 Q100 180, 128 164" stroke="#2d5f1d" stroke-width="10" fill="none" stroke-linecap="butt" opacity="0.75"/></g><path d="M76 160 L62 368 L138 368 L124 160 Z" fill="none" stroke="#1a1a1a" stroke-width="3"/><ellipse cx="100" cy="110" rx="78" ry="72" fill="#3a7a26" stroke="none"/><defs><clipPath id="head-clip"><ellipse cx="100" cy="110" rx="76.5" ry="70.5"/></clipPath></defs><g clip-path="url(#head-clip)"><path d="M22 110 A78 70 0 0 0 178 110" stroke="#1f4314" stroke-width="3.4" fill="none" stroke-linecap="round" opacity="0.7"/></g><defs><clipPath id="head-stroke-not-body"><path d="M0 0 L200 0 L200 360 L0 360 Z M76 160 L62 368 L138 368 L124 160 Z" clip-rule="evenodd"/></clipPath></defs><g clip-path="url(#head-stroke-not-body)"><ellipse cx="100" cy="110" rx="78" ry="72" fill="none" stroke="#1a1a1a" stroke-width="3.4"/></g></g><rect x="56" y="46" width="88" height="12" rx="2" fill="#c8a040" stroke="#6a4a14" stroke-width="2.2"/><line x1="58" y1="48" x2="142" y2="48" stroke="#ffe49a" stroke-width="1.2" opacity="0.7"/><rect x="58.0" y="16" width="14" height="30" fill="#5a7a5a" stroke="#1a2a1a" stroke-width="2"/><path d="M58.0 16 q7.0 -4 14 0 Z" fill="#3a4a3a" stroke="#1a2a1a" stroke-width="1.6"/><line x1="60.0" y1="20" x2="60.0" y2="38" stroke="#9ac49a" stroke-width="1.4" opacity="0.8"/><rect x="61" y="40" width="8" height="3" fill="#0a1a0a"/><rect x="76.0" y="6" width="14" height="40" fill="#5a7a5a" stroke="#1a2a1a" stroke-width="2"/><path d="M76.0 6 q7.0 -4 14 0 Z" fill="#3a4a3a" stroke="#1a2a1a" stroke-width="1.6"/><line x1="78.0" y1="10" x2="78.0" y2="38" stroke="#9ac49a" stroke-width="1.4" opacity="0.8"/><rect x="79" y="40" width="8" height="3" fill="#0a1a0a"/><rect x="94.0" y="-2" width="14" height="48" fill="#5a7a5a" stroke="#1a2a1a" stroke-width="2"/><path d="M94.0 -2 q7.0 -4 14 0 Z" fill="#3a4a3a" stroke="#1a2a1a" stroke-width="1.6"/><line x1="96.0" y1="2" x2="96.0" y2="38" stroke="#9ac49a" stroke-width="1.4" opacity="0.8"/><rect x="97" y="40" width="8" height="3" fill="#0a1a0a"/><rect x="112.0" y="6" width="14" height="40" fill="#5a7a5a" stroke="#1a2a1a" stroke-width="2"/><path d="M112.0 6 q7.0 -4 14 0 Z" fill="#3a4a3a" stroke="#1a2a1a" stroke-width="1.6"/><line x1="114.0" y1="10" x2="114.0" y2="38" stroke="#9ac49a" stroke-width="1.4" opacity="0.8"/><rect x="115" y="40" width="8" height="3" fill="#0a1a0a"/><rect x="130.0" y="16" width="14" height="30" fill="#5a7a5a" stroke="#1a2a1a" stroke-width="2"/><path d="M130.0 16 q7.0 -4 14 0 Z" fill="#3a4a3a" stroke="#1a2a1a" stroke-width="1.6"/><line x1="132.0" y1="20" x2="132.0" y2="38" stroke="#9ac49a" stroke-width="1.4" opacity="0.8"/><rect x="133" y="40" width="8" height="3" fill="#0a1a0a"/><g transform="rotate(-12 67 74)"><path d="M53 74 Q67 62, 81 74" stroke="#1a1a1a" stroke-width="2.4" fill="none" stroke-linecap="round"/></g><g transform="rotate(12 133 74)"><path d="M119 74 Q133 62, 147 74" stroke="#1a1a1a" stroke-width="2.4" fill="none" stroke-linecap="round"/></g><ellipse cx="67" cy="110" rx="29" ry="29" fill="#fff" stroke="#1a1a1a" stroke-width="3"/><defs><clipPath id="eye-0"><ellipse cx="67" cy="110" rx="27.5" ry="27.5"/></clipPath></defs><g clip-path="url(#eye-0)"><circle cx="67" cy="110" r="20.299999999999997" fill="#000"/><path d="M36 110.0 Q67 112.0, 98 110.0 L98 75 L36 75 Z" fill="#3a7a26"/><path d="M38 110.0 Q67 112.0, 96 110.0" stroke="#1a1a1a" stroke-width="2.2" fill="none"/></g><ellipse cx="133" cy="110" rx="29" ry="29" fill="#fff" stroke="#1a1a1a" stroke-width="3"/><defs><clipPath id="eye-1"><ellipse cx="133" cy="110" rx="27.5" ry="27.5"/></clipPath></defs><g clip-path="url(#eye-1)"><circle cx="133" cy="110" r="20.299999999999997" fill="#000"/><path d="M102 110.0 Q133 112.0, 164 110.0 L164 75 L102 75 Z" fill="#3a7a26"/><path d="M104 110.0 Q133 112.0, 162 110.0" stroke="#1a1a1a" stroke-width="2.2" fill="none"/></g><line x1="85" y1="158" x2="115" y2="158" stroke="#1a1a1a" stroke-width="2.6" stroke-linecap="round"/></g></g></svg>
