<svg xmlns="http://www.w3.org/2000/svg" viewBox="0 0 200 360" preserveAspectRatio="xMidYMax meet"><g class="char"><g transform="translate(0 -32)"><g class="body"><ellipse cx="100" cy="288" rx="56" ry="9" fill="#000" opacity="0.28"/><path d="M76 160 L62 368 L138 368 L124 160 Z" fill="#1a3611" stroke="none"/><path d="M122 166 L126 368 L138 368 L124 166 Z" fill="#12250b" opacity="0.28"/><defs><clipPath id="body-clip"><path d="M76 160 L62 368 L138 368 L124 160 Z"/></clipPath></defs><g clip-path="url(#body-clip)"><path d="M72 164 Q100 180, 128 164" stroke="#142a0d" stroke-width="10" fill="none" stroke-linecap="butt" opacity="0.75"/></g><path d="M76 160 L62 368 L138 368 L124 160 Z" fill="none" stroke="#1a1a1a" stroke-width="3"/><ellipse cx="100" cy="110" rx="78" ry="72" fill="#1a3611" stroke="none"/><defs><clipPath id="head-clip"><ellipse cx="100" cy="110" rx="76.5" ry="70.5"/></clipPath></defs><g clip-path="url(#head-clip)"><path d="M22 110 A78 70 0 0 0 178 110" stroke="#0e1d09" stroke-width="3.4" fill="none" stroke-linecap="round" opacity="0.7"/></g><defs><clipPath id="head-stroke-not-body"><path d="M0 0 L200 0 L200 360 L0 360 Z M76 160 L62 368 L138 368 L124 160 Z" clip-rule="evenodd"/></clipPath></defs><g clip-path="url(#head-stroke-not-body)"><ellipse cx="100" cy="110" rx="78" ry="72" fill="none" stroke="#1a1a1a" stroke-width="3.4"/></g><path d="M80 80 l8 14 l-4 14 l10 18 l-4 14" stroke="#e0d0c0" stroke-width="1.2" fill="none" opacity="0.55"/><path d="M97 180 q1 30 5 60 l-4 6 l-6 -8 q-1 -28 5 -56 Z" fill="#08010a" opacity="0.85"/></g><rect x="56" y="46" width="88" height="12" rx="2" fill="#c8a040" stroke="#6a4a14" stroke-width="2.2"/><line x1="58" y1="48" x2="142" y2="48" stroke="#ffe49a" stroke-width="1.2" opacity="0.7"/><rect x="58.0" y="16" width="14" height="30" fill="#5a7a5a" stroke="#1a2a1a" stroke-width="2"/><path d="M58.0 16 q7.0 -4 14 0 Z" fill="#3a4a3a" stroke="#1a2a1a" stroke-width="1.6"/><line x1="60.0" y1="20" x2="60.0" y2="38" stroke="#9ac49a" stroke-width="1.4" opacity="0.8"/><rect x="61" y="40" width="8" height="3" fill="#0a1a0a"/><rect x="76.0" y="6" width="14" height="40" fill="#5a7a5a" stroke="#1a2a1a" stroke-width="2"/><path d="M76.0 6 q7.0 -4 14 0 Z" fill="#3a4a3a" stroke="#1a2a1a" stroke-width="1.6"/><line x1="78.0" y1="10" x2="78.0" y2="38" stroke="#9ac49a" stroke-width="1.4" opacity="0.8"/><rect x="79" y="40" width="8" height="3" fill="#0a1a0a"/><rect x="94.0" y="-2" width="14" height="48" fill="#5a7a5a" stroke="#1a2a1a" stroke-width="2"/><path d="M94.0 -2 q7.0 -4 14 0 Z" fill="#3a4a3a" stroke="#1a2a1a" stroke-width="1.6"/><line x1="96.0" y1="2" x2="96.0" y2="38" stroke="#9ac49a" stroke-width="1.4" opacity="0.8"/><rect x="97" y="40" width="8" height="3" fill="#0a1a0a"/><rect x="112.0" y="6" width="14" height="40" fill="#5a7a5a" stroke="#1a2a1a" stroke-width="2"/><path d="M112.0 6 q7.0 -4 14 0 Z" fill="#3a4a3a" stroke="#1a2a1a" stroke-width="1.6"/><line x1="114.0" y1="10" x2="114.0" y2="38" stroke="#9ac49a" stroke-width="1.4" opacity="0.8"/><rect x="115" y="40" width="8" height="3" fill="#0a1a0a"/><rect x="130.0" y="16" width="14" height="30" fill="#5a7a5a" stroke="#1a2a1a" stroke-width="2"/><path d="M130.0 16 q7.0 -4 14 0 Z" fill="#3a4a3a" stroke="#1a2a1a" stroke-width="1.6"/><line x1="132.0" y1="20" x2="132.0" y2="38" stroke="#9ac49a" stroke-width="1.4" opacity="0.8"/><rect x="133" y="40" width="8" height="3" fill="#0a1a0a"/><ellipse cx="67" cy="110" rx="30" ry="29" fill="#08020a" stroke="#000" stroke-width="2"/><circle cx="67" cy="112" r="9.5" fill="#ff1a1a" opacity="0.35"/><circle cx="67" cy="112" r="6" fill="#ff2828"/><circle cx="67" cy="112" r="2.6" fill="#ffe2a0"/><path d="M66 138 l-1 14 l3 0 z" fill="#0a0203" opacity="0.85"/><ellipse cx="133" cy="110" rx="30" ry="29" fill="#08020a" stroke="#000" stroke-width="2"/><circle cx="133" cy="112" r="9.5" fill="#ff1a1a" opacity="0.35"/><circle cx="133" cy="112" r="6" fill="#ff2828"/><circle cx="133" cy="112" r="2.6" fill="#ffe2a0"/><path d="M132 138 l-1 14 l3 0 z" fill="#0a0203" opacity="0.85"/><path d="M74 160 q26 22 52 0 q-26 -14 -52 0 Z" fill="#0a0000" stroke="#000" stroke-width="2.4" stroke-linejoin="round"/><path d="M74.0 160 L77.7 169 L81.4 160 Z" fill="#f0d8c0"/><path d="M77.7 174 L81.4 166 L85.1 174 Z" fill="#f0d8c0"/><path d="M81.4 160 L85.1 169 L88.9 160 Z" fill="#f0d8c0"/><path d="M85.1 174 L88.9 166 L92.6 174 Z" fill="#f0d8c0"/><path d="M88.9 160 L92.6 169 L96.3 160 Z" fill="#f0d8c0"/><path d="M92.6 174 L96.3 166 L100.0 174 Z" fill="#f0d8c0"/><path d="M96.3 160 L100.0 169 L103.7 160 Z" fill="#f0d8c0"/><path d="M100.0 174 L103.7 166 L107.4 174 Z" fill="#f0d8c0"/><path d="M103.7 160 L107.4 169 L111.1 160 Z" fill="#f0d8c0"/><path d="M107.4 174 L111.1 166 L114.9 174 Z" fill="#f0d8c0"/><path d="M111.1 160 L114.9 169 L118.6 160 Z" fill="#f0d8c0"/><path d="M114.9 174 L118.6 166 L122.3 174 Z" fill="#f0d8c0"/><path d="M118.6 160 L122.3 169 L126.0 160 Z" fill="#f0d8c0"/><path d="M78 172 q-2 14 4 18" stroke="#0a0203" stroke-width="2.2" fill="none" stroke-linecap="round"/><path d="M122 172 q2 14 -4 18" stroke="#0a0203" stroke-width="2.2" fill="none" stroke-linecap="round"/></g></g></svg>
