<svg xmlns="http://www.w3.org/2000/svg" viewBox="0 0 200 360" preserveAspectRatio="xMidYMax meet"><g class="char"><g transform="translate(0 -10) rotate(14 100 290)"><g class="body"><ellipse cx="100" cy="288" rx="56" ry="9" fill="#000" opacity="0.28"/><path d="M76 160 L62 368 L138 368 L124 160 Z" fill="#caff2a" stroke="none"/><path d="M122 166 L126 368 L138 368 L124 166 Z" fill="#8db21d" opacity="0.28"/><defs><clipPath id="body-clip"><path d="M76 160 L62 368 L138 368 L124 160 Z"/></clipPath></defs><g clip-path="url(#body-clip)"><path d="M72 164 Q100 180, 128 164" stroke="#9dc620" stroke-width="10" fill="none" stroke-linecap="butt" opacity="0.75"/></g><path d="M76 160 L62 368 L138 368 L124 160 Z" fill="none" stroke="#1a1a1a" stroke-width="3"/><ellipse cx="100" cy="110" rx="78" ry="72" fill="#caff2a" stroke="none"/><defs><clipPath id="head-clip"><ellipse cx="100" cy="110" rx="76.5" ry="70.5"/></clipPath></defs><g clip-path="url(#head-clip)"><path d="M22 110 A78 70 0 0 0 178 110" stroke="#6f8c17" stroke-width="3.4" fill="none" stroke-linecap="round" opacity="0.7"/></g><defs><clipPath id="head-stroke-not-body"><path d="M0 0 L200 0 L200 360 L0 360 Z M76 160 L62 368 L138 368 L124 160 Z" clip-rule="evenodd"/></clipPath></defs><g clip-path="url(#head-stroke-not-body)"><ellipse cx="100" cy="110" rx="78" ry="72" fill="none" stroke="#1a1a1a" stroke-width="3.4"/></g></g><path d="M100 -6 L78 24 L90 24 L90 54 L110 54 L110 24 L122 24 Z" fill="#d9ff69" stroke="#5a7212" stroke-width="2.6" stroke-linejoin="miter"/><line x1="96" y1="6" x2="96" y2="50" stroke="#ffffff" stroke-width="2" opacity="0.75"/><circle cx="100" cy="-6" r="6" fill="#ffffff" opacity="0.55"/><circle cx="100" cy="-6" r="3" fill="#ffffff"/><path d="M74 42 q-4 -16 2 -28" stroke="#5a7212" stroke-width="2.6" fill="none" stroke-linecap="round" opacity="0.8"/><path d="M68 46 q-6 -10 -2 -18" stroke="#5a7212" stroke-width="2" fill="none" stroke-linecap="round" opacity="0.55"/><path d="M126 42 q4 -16 -2 -28" stroke="#5a7212" stroke-width="2.6" fill="none" stroke-linecap="round" opacity="0.8"/><path d="M132 46 q6 -10 2 -18" stroke="#5a7212" stroke-width="2" fill="none" stroke-linecap="round" opacity="0.55"/><g transform="rotate(-12 71 74)"><path d="M57 74 Q71 62, 85 74" stroke="#1a1a1a" stroke-width="2.4" fill="none" stroke-linecap="round"/></g><g transform="rotate(12 137 74)"><path d="M123 74 Q137 62, 151 74" stroke="#1a1a1a" stroke-width="2.4" fill="none" stroke-linecap="round"/></g><ellipse cx="71" cy="110" rx="29" ry="29" fill="#fff" stroke="#1a1a1a" stroke-width="3"/><defs><clipPath id="eye-0"><ellipse cx="71" cy="110" rx="27.5" ry="27.5"/></clipPath></defs><g clip-path="url(#eye-0)"><circle cx="71" cy="110" r="20.299999999999997" fill="#000"/><path d="M40 110.0 Q71 112.0, 102 110.0 L102 75 L40 75 Z" fill="#caff2a"/><path d="M42 110.0 Q71 112.0, 100 110.0" stroke="#1a1a1a" stroke-width="2.2" fill="none"/></g><ellipse cx="137" cy="110" rx="29" ry="29" fill="#fff" stroke="#1a1a1a" stroke-width="3"/><defs><clipPath id="eye-1"><ellipse cx="137" cy="110" rx="27.5" ry="27.5"/></clipPath></defs><g clip-path="url(#eye-1)"><circle cx="137" cy="110" r="20.299999999999997" fill="#000"/><path d="M106 110.0 Q137 112.0, 168 110.0 L168 75 L106 75 Z" fill="#caff2a"/><path d="M108 110.0 Q137 112.0, 166 110.0" stroke="#1a1a1a" stroke-width="2.2" fill="none"/></g><line x1="85" y1="159" x2="115" y2="159" stroke="#1a1a1a" stroke-width="2.6" stroke-linecap="round"/></g></g></svg>
