<svg xmlns="http://www.w3.org/2000/svg" viewBox="0 0 200 360" preserveAspectRatio="xMidYMax meet"><g class="char"><g><g class="body"><ellipse cx="100" cy="288" rx="56" ry="9" fill="#000" opacity="0.28"/><path d="M76 160 L62 368 L138 368 L124 160 Z" fill="#b30000" stroke="none"/><path d="M122 166 L126 368 L138 368 L124 166 Z" fill="#7d0000" opacity="0.28"/><defs><clipPath id="body-clip"><path d="M76 160 L62 368 L138 368 L124 160 Z"/></clipPath></defs><g clip-path="url(#body-clip)"><path d="M72 164 Q100 180, 128 164" stroke="#8b0000" stroke-width="10" fill="none" stroke-linecap="butt" opacity="0.75"/></g><path d="M76 160 L62 368 L138 368 L124 160 Z" fill="none" stroke="#1a1a1a" stroke-width="3"/><ellipse cx="100" cy="110" rx="78" ry="72" fill="#b30000" stroke="none"/><defs><clipPath id="head-clip"><ellipse cx="100" cy="110" rx="76.5" ry="70.5"/></clipPath></defs><g clip-path="url(#head-clip)"><path d="M22 110 A78 70 0 0 0 178 110" stroke="#620000" stroke-width="3.4" fill="none" stroke-linecap="round" opacity="0.7"/></g><defs><clipPath id="head-stroke-not-body"><path d="M0 0 L200 0 L200 360 L0 360 Z M76 160 L62 368 L138 368 L124 160 Z" clip-rule="evenodd"/></clipPath></defs><g clip-path="url(#head-stroke-not-body)"><ellipse cx="100" cy="110" rx="78" ry="72" fill="none" stroke="#1a1a1a" stroke-width="3.4"/></g></g><line x1="50" y1="70" x2="118" y2="6" stroke="#a06a32" stroke-width="4.4" stroke-linecap="round"/><line x1="50.6" y1="69" x2="118.6" y2="5" stroke="#5c3b14" stroke-width="0.9" stroke-linecap="round" opacity="0.55"/><ellipse cx="118" cy="6" rx="4.6" ry="5.4" fill="#dec39a" stroke="#5c3b14" stroke-width="1.4" transform="rotate(22 118 6)"/><circle cx="50" cy="70" r="3.2" fill="#5c3b14" stroke="#2a1808" stroke-width="1.2"/><line x1="150" y1="70" x2="82" y2="6" stroke="#a06a32" stroke-width="4.4" stroke-linecap="round"/><line x1="149.4" y1="69" x2="81.4" y2="5" stroke="#5c3b14" stroke-width="0.9" stroke-linecap="round" opacity="0.55"/><ellipse cx="82" cy="6" rx="4.6" ry="5.4" fill="#dec39a" stroke="#5c3b14" stroke-width="1.4" transform="rotate(-22 82 6)"/><circle cx="150" cy="70" r="3.2" fill="#5c3b14" stroke="#2a1808" stroke-width="1.2"/><rect x="93" y="56" width="14" height="6" rx="1.4" fill="#cdd4de" stroke="#0d1018" stroke-width="1.4"/><circle cx="97" cy="59" r="1" fill="#0d1018"/><circle cx="103" cy="59" r="1" fill="#0d1018"/><g transform="rotate(-12 67 74)"><path d="M53 74 Q67 62, 81 74" stroke="#1a1a1a" stroke-width="2.4" fill="none" stroke-linecap="round"/></g><g transform="rotate(12 133 74)"><path d="M119 74 Q133 62, 147 74" stroke="#1a1a1a" stroke-width="2.4" fill="none" stroke-linecap="round"/></g><ellipse cx="67" cy="110" rx="29" ry="29" fill="#fff" stroke="#1a1a1a" stroke-width="3"/><defs><clipPath id="eye-0"><ellipse cx="67" cy="110" rx="27.5" ry="27.5"/></clipPath></defs><g clip-path="url(#eye-0)"><circle cx="71" cy="110" r="20.299999999999997" fill="#000"/><path d="M36 110.0 Q67 112.0, 98 110.0 L98 75 L36 75 Z" fill="#b30000"/><path d="M38 110.0 Q67 112.0, 96 110.0" stroke="#1a1a1a" stroke-width="2.2" fill="none"/></g><ellipse cx="133" cy="110" rx="29" ry="29" fill="#fff" stroke="#1a1a1a" stroke-width="3"/><defs><clipPath id="eye-1"><ellipse cx="133" cy="110" rx="27.5" ry="27.5"/></clipPath></defs><g clip-path="url(#eye-1)"><circle cx="137" cy="110" r="20.299999999999997" fill="#000"/><path d="M102 110.0 Q133 112.0, 164 110.0 L164 75 L102 75 Z" fill="#b30000"/><path d="M104 110.0 Q133 112.0, 162 110.0" stroke="#1a1a1a" stroke-width="2.2" fill="none"/></g><line x1="85" y1="158" x2="115" y2="158" stroke="#1a1a1a" stroke-width="2.6" stroke-linecap="round"/></g></g></svg>
