<svg xmlns="http://www.w3.org/2000/svg" viewBox="0 0 200 360" preserveAspectRatio="xMidYMax meet"><g class="char"><g><g class="body"><ellipse cx="100" cy="288" rx="56" ry="9" fill="#000" opacity="0.28"/><path d="M76 160 L62 368 L138 368 L124 160 Z" fill="#72681a" stroke="none"/><path d="M122 166 L126 368 L138 368 L124 166 Z" fill="#4f4812" opacity="0.28"/><defs><clipPath id="body-clip"><path d="M76 160 L62 368 L138 368 L124 160 Z"/></clipPath></defs><g clip-path="url(#body-clip)"><path d="M72 164 Q100 180, 128 164" stroke="#585114" stroke-width="10" fill="none" stroke-linecap="butt" opacity="0.75"/></g><path d="M76 160 L62 368 L138 368 L124 160 Z" fill="none" stroke="#1a1a1a" stroke-width="3"/><ellipse cx="100" cy="110" rx="78" ry="72" fill="#72681a" stroke="none"/><defs><clipPath id="head-clip"><ellipse cx="100" cy="110" rx="76.5" ry="70.5"/></clipPath></defs><g clip-path="url(#head-clip)"><path d="M22 110 A78 70 0 0 0 178 110" stroke="#3e390e" stroke-width="3.4" fill="none" stroke-linecap="round" opacity="0.7"/></g><defs><clipPath id="head-stroke-not-body"><path d="M0 0 L200 0 L200 360 L0 360 Z M76 160 L62 368 L138 368 L124 160 Z" clip-rule="evenodd"/></clipPath></defs><g clip-path="url(#head-stroke-not-body)"><ellipse cx="100" cy="110" rx="78" ry="72" fill="none" stroke="#1a1a1a" stroke-width="3.4"/></g><path d="M80 80 l8 14 l-4 14 l10 18 l-4 14" stroke="#e0d0c0" stroke-width="1.2" fill="none" opacity="0.55"/><path d="M97 180 q1 30 5 60 l-4 6 l-6 -8 q-1 -28 5 -56 Z" fill="#08010a" opacity="0.85"/></g><path d="M56 48 L56 26 L78 26 L78 48 L100 48 L100 16 L122 16 L122 48 L144 48" stroke="#a87800" stroke-width="6" fill="none" stroke-linejoin="miter" stroke-linecap="butt" opacity="0.6"/><path d="M56 46 L56 24 L78 24 L78 46 L100 46 L100 14 L122 14 L122 46 L144 46" stroke="#ffe34a" stroke-width="4" fill="none" stroke-linejoin="miter" stroke-linecap="butt"/><path d="M56 46 L56 24 L78 24 L78 46 L100 46 L100 14 L122 14 L122 46 L144 46" stroke="#fff4a8" stroke-width="1.4" fill="none" stroke-linejoin="miter" stroke-linecap="butt" opacity="0.9"/><circle cx="56" cy="46" r="3.2" fill="#ffe34a" stroke="#665d17" stroke-width="1.6"/><circle cx="144" cy="46" r="3.2" fill="#ffe34a" stroke="#665d17" stroke-width="1.6"/><ellipse cx="67" cy="110" rx="30" ry="29" fill="#08020a" stroke="#000" stroke-width="2"/><circle cx="67" cy="112" r="9.5" fill="#ff1a1a" opacity="0.35"/><circle cx="67" cy="112" r="6" fill="#ff2828"/><circle cx="67" cy="112" r="2.6" fill="#ffe2a0"/><path d="M66 138 l-1 14 l3 0 z" fill="#0a0203" opacity="0.85"/><ellipse cx="133" cy="110" rx="30" ry="29" fill="#08020a" stroke="#000" stroke-width="2"/><circle cx="133" cy="112" r="9.5" fill="#ff1a1a" opacity="0.35"/><circle cx="133" cy="112" r="6" fill="#ff2828"/><circle cx="133" cy="112" r="2.6" fill="#ffe2a0"/><path d="M132 138 l-1 14 l3 0 z" fill="#0a0203" opacity="0.85"/><path d="M74 156 q26 22 52 0 q-26 -14 -52 0 Z" fill="#0a0000" stroke="#000" stroke-width="2.4" stroke-linejoin="round"/><path d="M74.0 156 L77.7 165 L81.4 156 Z" fill="#f0d8c0"/><path d="M77.7 170 L81.4 162 L85.1 170 Z" fill="#f0d8c0"/><path d="M81.4 156 L85.1 165 L88.9 156 Z" fill="#f0d8c0"/><path d="M85.1 170 L88.9 162 L92.6 170 Z" fill="#f0d8c0"/><path d="M88.9 156 L92.6 165 L96.3 156 Z" fill="#f0d8c0"/><path d="M92.6 170 L96.3 162 L100.0 170 Z" fill="#f0d8c0"/><path d="M96.3 156 L100.0 165 L103.7 156 Z" fill="#f0d8c0"/><path d="M100.0 170 L103.7 162 L107.4 170 Z" fill="#f0d8c0"/><path d="M103.7 156 L107.4 165 L111.1 156 Z" fill="#f0d8c0"/><path d="M107.4 170 L111.1 162 L114.9 170 Z" fill="#f0d8c0"/><path d="M111.1 156 L114.9 165 L118.6 156 Z" fill="#f0d8c0"/><path d="M114.9 170 L118.6 162 L122.3 170 Z" fill="#f0d8c0"/><path d="M118.6 156 L122.3 165 L126.0 156 Z" fill="#f0d8c0"/><path d="M78 168 q-2 14 4 18" stroke="#0a0203" stroke-width="2.2" fill="none" stroke-linecap="round"/><path d="M122 168 q2 14 -4 18" stroke="#0a0203" stroke-width="2.2" fill="none" stroke-linecap="round"/></g></g></svg>
