<svg xmlns="http://www.w3.org/2000/svg" viewBox="0 0 200 360" preserveAspectRatio="xMidYMax meet"><g class="char"><g><g class="body"><ellipse cx="100" cy="288" rx="56" ry="9" fill="#000" opacity="0.28"/><path d="M76 160 L62 368 L138 368 L124 160 Z" fill="#d8b27a" stroke="none"/><path d="M122 166 L126 368 L138 368 L124 166 Z" fill="#977c55" opacity="0.28"/><defs><clipPath id="body-clip"><path d="M76 160 L62 368 L138 368 L124 160 Z"/></clipPath></defs><g clip-path="url(#body-clip)"><path d="M72 164 Q100 180, 128 164" stroke="#a88a5f" stroke-width="10" fill="none" stroke-linecap="butt" opacity="0.75"/></g><path d="M76 160 L62 368 L138 368 L124 160 Z" fill="none" stroke="#1a1a1a" stroke-width="3"/><ellipse cx="100" cy="110" rx="78" ry="72" fill="#d8b27a" stroke="none"/><defs><clipPath id="head-clip"><ellipse cx="100" cy="110" rx="76.5" ry="70.5"/></clipPath></defs><g clip-path="url(#head-clip)"><path d="M22 110 A78 70 0 0 0 178 110" stroke="#766143" stroke-width="3.4" fill="none" stroke-linecap="round" opacity="0.7"/></g><defs><clipPath id="head-stroke-not-body"><path d="M0 0 L200 0 L200 360 L0 360 Z M76 160 L62 368 L138 368 L124 160 Z" clip-rule="evenodd"/></clipPath></defs><g clip-path="url(#head-stroke-not-body)"><ellipse cx="100" cy="110" rx="78" ry="72" fill="none" stroke="#1a1a1a" stroke-width="3.4"/></g></g><ellipse cx="100" cy="54" rx="58" ry="9" fill="#5a3a1a" stroke="#3a2008" stroke-width="2.4"/><path d="M68 54 L68 16 Q100 6, 132 16 L132 54 Z" fill="#8a5a32" stroke="#3a2008" stroke-width="2.4"/><rect x="68" y="42" width="64" height="8" fill="#2a1808"/><path d="M88 18 q12 -8 24 0" stroke="#3a2008" stroke-width="1.6" fill="none"/><path d="M108 46 q4 6 12 8" stroke="#2a1808" stroke-width="1.4" fill="none"/><rect x="114" y="46" width="22" height="6" rx="2.4" fill="#cdd4de" stroke="#5a626f" stroke-width="1.4"/><line x1="116" y1="47.5" x2="134" y2="47.5" stroke="#ffffff" stroke-width="0.9" opacity="0.85"/><rect x="112" y="47" width="3" height="4" rx="0.6" fill="#5a626f" stroke="#0d1018" stroke-width="0.8"/><circle cx="124" cy="49" r="1.1" fill="#5a626f"/><circle cx="129" cy="49" r="1.1" fill="#5a626f"/><path d="M108 49 q-4 -2 -8 0 q4 1 0 4 q-4 -1 0 -4" fill="none" stroke="#5a626f" stroke-width="1.2" opacity="0.6"/><g transform="rotate(-12 67 74)"><path d="M53 74 Q67 62, 81 74" stroke="#1a1a1a" stroke-width="2.4" fill="none" stroke-linecap="round"/></g><g transform="rotate(12 133 74)"><path d="M119 74 Q133 62, 147 74" stroke="#1a1a1a" stroke-width="2.4" fill="none" stroke-linecap="round"/></g><ellipse cx="67" cy="110" rx="29" ry="29" fill="#fff" stroke="#1a1a1a" stroke-width="3"/><defs><clipPath id="eye-0"><ellipse cx="67" cy="110" rx="27.5" ry="27.5"/></clipPath></defs><g clip-path="url(#eye-0)"><circle cx="67" cy="110" r="20.299999999999997" fill="#000"/><path d="M36 110.0 Q67 112.0, 98 110.0 L98 75 L36 75 Z" fill="#d8b27a"/><path d="M38 110.0 Q67 112.0, 96 110.0" stroke="#1a1a1a" stroke-width="2.2" fill="none"/></g><ellipse cx="133" cy="110" rx="29" ry="29" fill="#fff" stroke="#1a1a1a" stroke-width="3"/><defs><clipPath id="eye-1"><ellipse cx="133" cy="110" rx="27.5" ry="27.5"/></clipPath></defs><g clip-path="url(#eye-1)"><circle cx="133" cy="110" r="20.299999999999997" fill="#000"/><path d="M102 110.0 Q133 112.0, 164 110.0 L164 75 L102 75 Z" fill="#d8b27a"/><path d="M104 110.0 Q133 112.0, 162 110.0" stroke="#1a1a1a" stroke-width="2.2" fill="none"/></g><line x1="85" y1="158" x2="115" y2="158" stroke="#1a1a1a" stroke-width="2.6" stroke-linecap="round"/></g></g></svg>
