<svg xmlns="http://www.w3.org/2000/svg" viewBox="0 0 200 360" preserveAspectRatio="xMidYMax meet"><g class="char"><g><g class="body"><ellipse cx="100" cy="288" rx="56" ry="9" fill="#000" opacity="0.28"/><path d="M76 160 L62 368 L138 368 L124 160 Z" fill="#f4f4f4" stroke="none"/><path d="M122 166 L126 368 L138 368 L124 166 Z" fill="#aaaaaa" opacity="0.28"/><defs><clipPath id="body-clip"><path d="M76 160 L62 368 L138 368 L124 160 Z"/></clipPath></defs><g clip-path="url(#body-clip)"><path d="M72 164 Q100 180, 128 164" stroke="#bebebe" stroke-width="10" fill="none" stroke-linecap="butt" opacity="0.75"/></g><path d="M76 160 L62 368 L138 368 L124 160 Z" fill="none" stroke="#1a1a1a" stroke-width="3"/><ellipse cx="100" cy="110" rx="78" ry="72" fill="#f4f4f4" stroke="none"/><defs><clipPath id="head-clip"><ellipse cx="100" cy="110" rx="76.5" ry="70.5"/></clipPath></defs><g clip-path="url(#head-clip)"><path d="M22 110 A78 70 0 0 0 178 110" stroke="#868686" stroke-width="3.4" fill="none" stroke-linecap="round" opacity="0.7"/></g><defs><clipPath id="head-stroke-not-body"><path d="M0 0 L200 0 L200 360 L0 360 Z M76 160 L62 368 L138 368 L124 160 Z" clip-rule="evenodd"/></clipPath></defs><g clip-path="url(#head-stroke-not-body)"><ellipse cx="100" cy="110" rx="78" ry="72" fill="none" stroke="#1a1a1a" stroke-width="3.4"/></g></g><g transform="rotate(-12 100 42)"><path d="M88 46 L62 6 L138 6 L112 46 Z" fill="#e8ecf2" stroke="#5a6068" stroke-width="2.6" stroke-linejoin="round"/><path d="M68 12 q32 4 64 0" stroke="#5a6068" stroke-width="1.2" fill="none" opacity="0.7"/><path d="M68 16 q32 4 64 0" stroke="#5a6068" stroke-width="1.2" fill="none" opacity="0.7"/><path d="M68 20 q32 4 64 0" stroke="#5a6068" stroke-width="1.2" fill="none" opacity="0.7"/><path d="M64 8 q36 -4 72 0" stroke="#ffffff" stroke-width="1.4" fill="none" opacity="0.85"/><rect x="88" y="44" width="24" height="14" rx="3" fill="#a0a8b4" stroke="#5a6068" stroke-width="2"/><rect x="96" y="48" width="8" height="6" rx="1.2" fill="#ff5050" stroke="#7a1c12" stroke-width="1.2"/></g><path d="M134 11.0 q14 14.0 0 22.0" stroke="#ffe34a" stroke-width="2.6" fill="none" stroke-linecap="round" opacity="0.85"/><path d="M134 14.0 q14 22.4 0 35.2" stroke="#ffe34a" stroke-width="2.6" fill="none" stroke-linecap="round" opacity="0.85"/><path d="M134 17.0 q14 30.799999999999997 0 48.400000000000006" stroke="#ffe34a" stroke-width="2.6" fill="none" stroke-linecap="round" opacity="0.85"/><g transform="rotate(-12 67 74)"><path d="M53 74 Q67 62, 81 74" stroke="#1a1a1a" stroke-width="2.4" fill="none" stroke-linecap="round"/></g><g transform="rotate(12 133 74)"><path d="M119 74 Q133 62, 147 74" stroke="#1a1a1a" stroke-width="2.4" fill="none" stroke-linecap="round"/></g><ellipse cx="67" cy="110" rx="29" ry="29" fill="#fff" stroke="#1a1a1a" stroke-width="3"/><defs><clipPath id="eye-0"><ellipse cx="67" cy="110" rx="27.5" ry="27.5"/></clipPath></defs><g clip-path="url(#eye-0)"><circle cx="67" cy="110" r="20.299999999999997" fill="#000"/><path d="M36 110.0 Q67 112.0, 98 110.0 L98 75 L36 75 Z" fill="#f4f4f4"/><path d="M38 110.0 Q67 112.0, 96 110.0" stroke="#1a1a1a" stroke-width="2.2" fill="none"/></g><ellipse cx="133" cy="110" rx="29" ry="29" fill="#fff" stroke="#1a1a1a" stroke-width="3"/><defs><clipPath id="eye-1"><ellipse cx="133" cy="110" rx="27.5" ry="27.5"/></clipPath></defs><g clip-path="url(#eye-1)"><circle cx="133" cy="110" r="20.299999999999997" fill="#000"/><path d="M102 110.0 Q133 112.0, 164 110.0 L164 75 L102 75 Z" fill="#f4f4f4"/><path d="M104 110.0 Q133 112.0, 162 110.0" stroke="#1a1a1a" stroke-width="2.2" fill="none"/></g><line x1="85" y1="158" x2="115" y2="158" stroke="#1a1a1a" stroke-width="2.6" stroke-linecap="round"/></g></g></svg>
